<?xml version="1.0" encoding="utf-8"?>
<!-- Generator: Adobe Illustrator 16.0.0, SVG Export Plug-In . SVG Version: 6.00 Build 0)  -->
<!DOCTYPE svg PUBLIC "-//W3C//DTD SVG 1.1//EN" "http://www.w3.org/Graphics/SVG/1.1/DTD/svg11.dtd">
<svg version="1.1" id="Layer_1" xmlns="http://www.w3.org/2000/svg" xmlns:xlink="http://www.w3.org/1999/xlink" x="0px" y="0px"
	 width="612px" height="1585px" viewBox="1394.5 0 612 1585" enable-background="new 1394.5 0 612 1585" xml:space="preserve">
<g>
	<polygon fill="#8CC153" points="1986.062,1409.948 1942.431,1378.871 1895.217,1360.942 1860.553,1345.402 1560.529,1350.576 
		1458.332,1382.458 1429.645,1409.948 1429.645,1481.668 1990.245,1476.289 	"/>
	<path fill="#A0D468" d="M1881.472,1014.303l-11.355-47.812c0,0-40.64-43.032-43.628-44.229s-67.534-24.505-67.534-24.505
		l-84.867-3.586l-51.997,9.562l-54.984,37.057l-28.09,54.387l-11.951,117.142l6.572,42.434l43.03-69.926l251.613-4.185
		l44.823,57.974l11.355-2.392L1881.472,1014.303z"/>
	<path fill="#EAC6BB" d="M1824.096,1084.229l-114.749,3.586l-130.289,3.586l-19.948,21.965l-2.166,36.009
		c0,0,17.931,59.767,17.332,61.56c-0.598,1.793,17.33,0.598,17.33,0.598l64.547-7.171l40.643-19.126l23.907,4.781l94.428,24.504
		l25.103-14.344l17.929-62.755L1824.096,1084.229z"/>
	<polygon fill="#A0D468" points="1798.396,1214.517 1742.217,1200.771 1705.76,1191.806 1571.885,1214.517 1584.438,1234.837 
		1611.33,1272.49 1665.119,1307.752 1697.393,1318.51 1747.597,1307.154 1783.453,1277.271 1796.566,1254.729 1829.475,1217.505 	
		"/>
	<polygon fill="#EAC6BB" points="1752.976,1306.557 1707.553,1324.485 1662.131,1305.36 1601.768,1263.524 1633.443,1351.38 
		1689.623,1360.942 1758.952,1354.368 1793.614,1324.485 1808.556,1272.49 	"/>
	<polygon fill="#51702A" points="1644.201,1363.332 1711.14,1469.323 1768.907,1350.576 	"/>
	<g>
		<polygon fill="#A0D468" points="1607.445,1300.579 1554.554,1340.322 1592.205,1367.516 1588.021,1402.18 1636.133,1437.441 
			1685.141,1457.164 		"/>
		<polygon fill="#A0D468" points="1852.783,1345.402 1807.062,1300.579 1732.057,1458.658 1823.797,1407.259 1816.625,1371.102 		
			"/>
	</g>
	<path fill="#5D5D5D" d="M1950.295,1366.489l-2.166-0.617c-31.656-8.516-42.359-16.678-56.46-22.039
		c-9.954-3.791-18.434-7.378-25.68-10.721l-41.032-40.604l-0.225-32.311c21.775-29.155,38.474-64.211,43.927-101.209l5.436,8.031
		c2.429,3.565,6.426,5.604,10.571,5.604c1.252,0,2.504-0.187,3.736-0.578c5.357-1.645,9.02-6.573,9.02-12.179v-127.562
		c0-1.587-0.279-39.221-24.315-77.003c-14.177-22.281-33.638-40.005-57.86-52.688c-29.623-15.521-66.341-23.384-109.167-23.384
		c-42.809,0-79.545,7.862-109.166,23.384c-24.205,12.681-43.684,30.405-57.859,52.688c-24.036,37.782-24.316,75.416-24.316,77.003
		v127.562c0,5.604,3.66,10.553,9.021,12.196c5.358,1.625,11.149-0.411,14.307-5.062l5.436-8.031
		c5.453,37.018,22.15,72.055,43.928,101.229l-0.225,32.05l-41.518,41.088c-7.137,3.287-15.467,6.801-25.195,10.497
		c-14.102,5.359-24.803,13.521-56.46,22.038l-2.185,0.617c-28.8,9.524-48.188,36.251-48.188,66.415v58.327h292.421H1998.5v-58.327
		C1998.499,1402.74,1979.112,1376.014,1950.295,1366.489z M1807.566,1376.929l4.78,19.703l-70.747,43.63l70.485-124.591
		l27.438,27.154l-27.324,20.993C1808.183,1366.881,1806.371,1372.035,1807.566,1376.929z M1599.715,1363.817l-27.344-20.993
		l27.455-27.173l70.674,124.629l-70.937-43.666l4.764-19.687C1605.521,1372.035,1603.711,1366.881,1599.715,1363.817z
		 M1774.529,1330.237c-1.737,1.567-6.911,5.901-15.818,10.16c-18.621,8.929-38.941,10.796-52.707,10.796
		c-24.934,0-42.434-5.864-52.723-10.796c-8.93-4.276-14.12-8.593-15.858-10.16l-21.422-37.765
		c29.92,28.539,63.536,46.226,90.077,46.226c26.39,0,59.746-17.479,89.518-45.701L1774.529,1330.237z M1751.893,1370.262
		l-45.834,81.02l-45.926-81.001c12.364,3.734,27.584,6.425,45.87,6.425C1724.288,1376.704,1739.527,1374.016,1751.893,1370.262z
		 M1602.18,1224.602c46.562,0,89.293-18.079,104.291-25.193c16.156,6.647,63.894,24.521,111.442,25.157
		c-7.172,12.064-15.613,23.757-25.288,34.775c-14.642,16.679-31.058,30.648-47.456,40.379c-14.624,8.687-28.52,13.468-39.091,13.468
		c-10.572,0-24.468-4.781-39.09-13.468c-16.398-9.73-32.815-23.699-47.459-40.379c-9.711-11.076-18.209-22.823-25.381-34.942
		C1596.837,1224.527,1599.509,1224.602,1602.18,1224.602z M1561.184,968.059c11.822-18.229,28.071-32.758,48.262-43.217
		c25.812-13.336,58.326-20.097,96.634-20.097c38.307,0,70.822,6.761,96.634,20.097c20.189,10.459,36.42,24.988,48.259,43.217
		c12.589,19.388,17.612,39.109,19.611,51.492h-329.01C1543.572,1007.168,1548.595,987.445,1561.184,968.059z M1540.248,1045.062
		h331.66v73.23l-28.536-42.136c-2.391-3.492-6.332-5.584-10.572-5.584h-253.518c-4.24,0-8.199,2.11-10.571,5.603l-28.465,42.079
		L1540.248,1045.062L1540.248,1045.062z M1567.328,1123.748l18.715-27.66h239.995l18.79,27.735c0.168,3.175,0.242,6.388,0.242,9.638
		c0,21.271-4.912,43.534-14.082,65.255c-54.984,3.829-118.989-24.672-119.661-24.971c-0.095-0.037-0.169-0.056-0.263-0.093
		c-0.111-0.058-0.225-0.095-0.336-0.15c-0.279-0.111-0.578-0.205-0.858-0.299c-0.074-0.02-0.131-0.037-0.188-0.057
		c-0.354-0.093-0.69-0.187-1.046-0.262c-0.02,0-0.02,0-0.037-0.019c-0.804-0.15-1.588-0.227-2.391-0.243c-0.037,0-0.074,0-0.112,0
		c-0.354,0-0.729,0.019-1.103,0.056c-0.094,0-0.206,0.021-0.299,0.037c-0.3,0.021-0.599,0.058-0.896,0.113
		c-0.149,0.037-0.299,0.073-0.448,0.11c-0.262,0.037-0.504,0.095-0.747,0.17c-0.169,0.056-0.336,0.093-0.505,0.168
		c-0.225,0.074-0.446,0.148-0.672,0.226c-0.168,0.074-0.336,0.147-0.483,0.225c-0.226,0.095-0.469,0.188-0.673,0.299
		c-0.057,0.037-0.112,0.058-0.169,0.074c-0.578,0.318-58.699,30.63-114.47,24.036c-1.567-0.188-3.119-0.057-4.595,0.317
		c-9.077-21.666-13.934-43.815-13.934-64.994C1567.104,1130.192,1567.18,1126.96,1567.328,1123.748z M1439.168,1432.902
		c0-19.032,12.14-35.879,30.293-42.041l1.42-0.411c23.871-6.424,37.018-12.737,47.607-17.817c4.091-1.941,7.641-3.643,11.074-4.95
		c6.817-2.596,14.231-5.546,21.76-8.87l26.26,20.171l-5.006,20.638c-1.289,5.359,1.009,10.963,5.715,13.876l84.848,52.222h-223.971
		V1432.902L1439.168,1432.902z M1972.986,1465.718h-224.045l84.68-52.239c4.707-2.896,7.004-8.498,5.697-13.857l-5.006-20.639
		l26.352-20.244c7.583,3.36,15.072,6.33,21.945,8.943c3.418,1.309,6.965,3.008,11.056,4.95c10.59,5.08,23.758,11.393,47.607,17.816
		l1.42,0.411c18.136,6.163,30.294,23.01,30.294,42.041V1465.718L1972.986,1465.718z"/>
</g>
<g>
	<polygon fill="#828282" points="1986.062,600.948 1942.431,569.871 1895.217,551.942 1860.553,536.402 1560.529,541.576 
		1458.332,573.458 1429.645,600.948 1429.645,672.668 1990.245,667.289 	"/>
	<path fill="#828282" d="M1881.472,205.303l-11.355-47.812c0,0-40.64-43.032-43.628-44.228
		c-2.988-1.196-67.534-24.505-67.534-24.505l-84.867-3.586l-51.997,9.562l-54.984,37.057l-28.09,54.387l-11.951,117.141
		l6.572,42.434l43.03-69.926l251.613-4.184l44.823,57.973l11.355-2.391L1881.472,205.303z"/>
	<path fill="#5D5D5D" d="M1824.096,275.228l-114.749,3.586l-130.289,3.586l-19.948,21.965l-2.166,36.009
		c0,0,17.931,59.766,17.332,61.559c-0.598,1.793,17.33,0.599,17.33,0.599l64.547-7.171l40.643-19.126l23.907,4.781l94.428,24.503
		l25.103-14.343l17.929-62.755L1824.096,275.228z"/>
	<polygon fill="#828282" points="1798.396,405.517 1742.217,391.771 1705.76,382.806 1571.885,405.517 1584.438,425.837 
		1611.33,463.49 1665.119,498.752 1697.393,509.51 1747.597,498.154 1783.453,468.271 1796.566,445.728 1829.475,408.505 	"/>
	<polygon fill="#FFFFFF" points="1752.976,497.557 1707.553,515.485 1662.131,496.36 1601.768,454.524 1633.443,542.38 
		1689.623,551.942 1758.952,545.368 1793.614,515.485 1808.556,463.49 	"/>
	<polygon fill="#FFFFFF" points="1644.201,554.332 1711.14,660.323 1768.907,541.576 	"/>
	<g>
		<polygon fill="#FFFFFF" points="1607.445,491.579 1554.554,531.322 1592.205,558.516 1588.021,593.18 1636.133,628.441 
			1685.141,648.164 		"/>
		<polygon fill="#FFFFFF" points="1852.783,536.402 1807.062,491.579 1732.057,649.658 1823.797,598.259 1816.625,562.102 		"/>
	</g>
	<path fill="#5D5D5D" d="M1950.295,557.489l-2.166-0.617c-31.656-8.516-42.359-16.678-56.46-22.039
		c-9.954-3.791-18.434-7.378-25.68-10.721l-41.032-40.604l-0.225-32.311c21.775-29.155,38.474-64.211,43.927-101.209l5.436,8.031
		c2.429,3.566,6.426,5.604,10.571,5.604c1.252,0,2.504-0.187,3.736-0.578c5.357-1.645,9.02-6.574,9.02-12.179v-127.56
		c0-1.587-0.279-39.221-24.315-77.003c-14.177-22.282-33.638-40.005-57.86-52.688c-29.623-15.521-66.341-23.384-109.167-23.384
		c-42.809,0-79.545,7.863-109.166,23.384c-24.205,12.681-43.684,30.405-57.859,52.688c-24.036,37.782-24.316,75.416-24.316,77.003
		v127.562c0,5.604,3.66,10.553,9.021,12.196c5.358,1.625,11.149-0.411,14.307-5.061l5.436-8.032
		c5.453,37.018,22.15,72.055,43.928,101.229l-0.225,32.05l-41.518,41.088c-7.137,3.287-15.467,6.8-25.195,10.497
		c-14.102,5.359-24.803,13.521-56.46,22.038l-2.185,0.617c-28.8,9.524-48.188,36.251-48.188,66.415v58.327h292.421H1998.5v-58.327
		C1998.499,593.74,1979.112,567.014,1950.295,557.489z M1807.566,567.929l4.78,19.703l-70.747,43.63l70.485-124.591l27.438,27.154
		l-27.324,20.993C1808.183,557.881,1806.371,563.035,1807.566,567.929z M1599.715,554.817l-27.344-20.993l27.455-27.173
		L1670.5,631.28l-70.936-43.666l4.763-19.687C1605.521,563.035,1603.711,557.881,1599.715,554.817z M1774.529,521.237
		c-1.737,1.567-6.911,5.901-15.818,10.159c-18.621,8.93-38.941,10.797-52.707,10.797c-24.934,0-42.434-5.864-52.723-10.797
		c-8.93-4.275-14.12-8.592-15.858-10.159l-21.422-37.765c29.92,28.539,63.536,46.226,90.077,46.226
		c26.39,0,59.746-17.479,89.518-45.701L1774.529,521.237z M1751.893,561.262l-45.834,81.02l-45.926-81.001
		c12.364,3.734,27.584,6.425,45.87,6.425C1724.288,567.704,1739.527,565.016,1751.893,561.262z M1602.18,415.602
		c46.562,0,89.293-18.079,104.291-25.193c16.156,6.647,63.894,24.521,111.442,25.157c-7.172,12.064-15.613,23.757-25.288,34.775
		c-14.642,16.679-31.058,30.648-47.456,40.379c-14.624,8.687-28.52,13.468-39.091,13.468c-10.572,0-24.468-4.781-39.09-13.468
		c-16.398-9.73-32.815-23.7-47.459-40.379c-9.711-11.076-18.209-22.823-25.381-34.942
		C1596.837,415.527,1599.509,415.602,1602.18,415.602z M1561.184,159.059c11.822-18.229,28.071-32.758,48.262-43.217
		c25.812-13.336,58.326-20.097,96.634-20.097c38.307,0,70.822,6.761,96.634,20.097c20.189,10.459,36.42,24.988,48.259,43.217
		c12.589,19.387,17.612,39.109,19.611,51.492h-329.01C1543.572,198.168,1548.595,178.445,1561.184,159.059z M1540.248,236.062
		h331.66v73.231l-28.536-42.136c-2.391-3.492-6.332-5.584-10.572-5.584h-253.518c-4.24,0-8.199,2.111-10.571,5.603l-28.465,42.079
		L1540.248,236.062L1540.248,236.062z M1567.328,314.748l18.715-27.66h239.995l18.79,27.735c0.168,3.175,0.242,6.388,0.242,9.638
		c0,21.271-4.912,43.534-14.082,65.255c-54.984,3.829-118.989-24.672-119.661-24.971c-0.095-0.037-0.169-0.056-0.263-0.093
		c-0.111-0.057-0.225-0.094-0.336-0.15c-0.279-0.111-0.578-0.205-0.858-0.299c-0.074-0.019-0.131-0.037-0.188-0.056
		c-0.354-0.093-0.69-0.187-1.046-0.262c-0.02,0-0.02,0-0.037-0.019c-0.804-0.15-1.588-0.226-2.391-0.243c-0.037,0-0.074,0-0.112,0
		c-0.354,0-0.729,0.019-1.103,0.056c-0.094,0-0.206,0.02-0.299,0.037c-0.3,0.02-0.599,0.057-0.896,0.113
		c-0.149,0.037-0.299,0.073-0.448,0.111c-0.262,0.037-0.504,0.094-0.747,0.169c-0.169,0.056-0.336,0.093-0.505,0.169
		c-0.225,0.074-0.446,0.148-0.672,0.225c-0.168,0.074-0.336,0.148-0.483,0.225c-0.226,0.094-0.469,0.187-0.673,0.299
		c-0.057,0.037-0.112,0.057-0.169,0.074c-0.578,0.318-58.699,30.63-114.47,24.036c-1.567-0.187-3.119-0.057-4.595,0.317
		c-9.077-21.666-13.934-43.815-13.934-64.994C1567.104,321.192,1567.18,317.96,1567.328,314.748z M1439.168,623.902
		c0-19.032,12.14-35.878,30.293-42.041l1.42-0.411c23.871-6.424,37.018-12.737,47.607-17.817c4.091-1.941,7.641-3.643,11.074-4.95
		c6.817-2.596,14.231-5.546,21.76-8.87l26.26,20.17l-5.006,20.639c-1.289,5.358,1.009,10.963,5.715,13.876l84.848,52.222h-223.971
		V623.902L1439.168,623.902z M1972.986,656.718h-224.045l84.68-52.239c4.707-2.896,7.004-8.497,5.697-13.857l-5.006-20.638
		l26.352-20.245c7.583,3.36,15.072,6.33,21.945,8.943c3.418,1.309,6.965,3.009,11.056,4.95c10.59,5.08,23.758,11.394,47.607,17.816
		l1.42,0.411c18.136,6.164,30.294,23.01,30.294,42.042V656.718L1972.986,656.718z"/>
</g>
</svg>
