<?xml version="1.0" encoding="utf-8"?>
<!-- Generator: Adobe Illustrator 16.0.0, SVG Export Plug-In . SVG Version: 6.00 Build 0)  -->
<!DOCTYPE svg PUBLIC "-//W3C//DTD SVG 1.1//EN" "http://www.w3.org/Graphics/SVG/1.1/DTD/svg11.dtd">
<svg version="1.1" id="Layer_1" xmlns="http://www.w3.org/2000/svg" xmlns:xlink="http://www.w3.org/1999/xlink" x="0px" y="0px"
	 width="612px" height="1585px" viewBox="0 0 612 1585" enable-background="new 0 0 612 1585" xml:space="preserve">
<g>
	<path fill="#5D5D5D" d="M135.613,1488.333c-9.822,0-18.445-5.919-21.966-15.079l-27.379-71.185l-71.186-27.377
		c-7.461-2.87-12.904-9.251-14.563-17.07s0.726-15.863,6.378-21.514l139.86-139.859l145.332,145.332l-139.861,139.862
		C147.782,1485.886,141.884,1488.333,135.613,1488.333z M45.027,1348.18l58.951,22.674c6.199,2.383,11.128,7.309,13.512,13.513
		l22.669,58.946l101.729-101.729l-95.131-95.135L45.027,1348.18z"/>
	<path fill="#5D5D5D" d="M476.371,1488.336c-6.165,0-12.125-2.426-16.596-6.893l-31.063-31.062l25.102-25.101l18.03,18.031
		l22.673-58.95c2.384-6.201,7.312-11.129,13.516-13.512l58.942-22.672l-114.279-114.279l25.101-25.1l127.312,127.312
		c5.649,5.65,8.034,13.691,6.377,21.51c-1.659,7.819-7.104,14.201-14.563,17.071l-71.185,27.38l-27.38,71.184
		c-2.867,7.459-9.25,12.905-17.067,14.564C479.652,1488.167,478.004,1488.336,476.371,1488.336z"/>
</g>
<path fill="#8CC153" d="M518.963,1218.561c7.635-23.52,46.391-43.137,46.391-69.198c0-26.064-38.756-45.684-46.391-69.2
	c-7.914-24.372,11.632-62.973-3.133-83.262c-14.914-20.491-57.762-13.755-78.254-28.669c-20.289-14.765-27.04-57.679-51.412-65.593
	c-23.52-7.634-54.099,22.864-80.162,22.864c-26.063,0-56.643-30.501-80.161-22.864c-24.375,7.914-31.124,50.828-51.413,65.593
	c-20.491,14.914-63.339,8.176-78.253,28.669c-14.766,20.286,4.781,58.887-3.133,83.262c-7.635,23.518-46.39,43.136-46.39,69.2
	c0,26.063,38.755,45.683,46.39,69.2c7.914,24.375-11.632,62.973,3.133,83.262c14.914,20.49,57.761,13.755,78.253,28.669
	c20.29,14.766,27.041,57.68,51.413,65.594c23.518,7.636,54.099-22.864,80.161-22.864c26.064,0,56.645,30.501,80.162,22.864
	c24.374-7.914,31.123-50.827,51.412-65.592c20.491-14.914,63.34-8.177,78.254-28.666
	C530.595,1281.534,511.049,1242.933,518.963,1218.561z M306.001,1291.342c-78.415,0-141.981-63.565-141.981-141.981
	c0-78.414,63.567-141.98,141.981-141.98c32.646,0,62.717,11.018,86.701,29.537c33.624,25.965,55.28,66.676,55.28,112.443
	C447.982,1227.773,384.416,1291.342,306.001,1291.342z"/>
<g>
	<path fill="#5D5D5D" d="M378.069,1415.056c-15.062,0-29.284-6.936-43.036-13.645c-10.532-5.137-21.418-10.448-29.029-10.448
		c-7.612,0-18.5,5.312-29.03,10.448c-13.752,6.708-27.974,13.645-43.035,13.645c-4.728,0-9.295-0.704-13.578-2.095
		c-20.495-6.655-30.88-26.339-40.044-43.706c-5.276-9.999-10.73-20.339-16.332-24.416c-5.751-4.185-17.395-6.223-28.655-8.192
		c-19.207-3.36-40.978-7.17-53.503-24.38c-12.416-17.061-9.361-38.829-6.667-58.036c1.603-11.423,3.262-23.232,1-30.188
		c-2.057-6.338-10.075-14.578-17.832-22.548c-13.792-14.175-29.427-30.243-29.427-52.134c0-21.89,15.636-37.957,29.427-52.134
		c7.755-7.969,15.774-16.209,17.833-22.549c2.258-6.955,0.6-18.764-1.003-30.186c-2.695-19.207-5.751-40.977,6.664-58.037
		c12.529-17.213,34.301-21.021,53.507-24.383c11.261-1.971,22.902-4.006,28.655-8.192c5.601-4.075,11.055-14.414,16.329-24.414
		c9.163-17.368,19.549-37.054,40.044-43.709c4.283-1.391,8.849-2.095,13.578-2.095c15.061,0,29.284,6.936,43.036,13.645
		c10.532,5.138,21.417,10.448,29.029,10.448c7.612,0,18.5-5.312,29.029-10.448c13.753-6.708,27.975-13.645,43.035-13.645
		c4.728,0,9.296,0.704,13.577,2.095c20.494,6.655,30.88,26.341,40.044,43.709c5.274,9.999,10.73,20.337,16.329,24.414
		c5.754,4.188,17.396,6.223,28.655,8.192c19.206,3.36,40.979,7.17,53.503,24.38c12.416,17.061,9.36,38.829,6.667,58.037
		c-1.604,11.423-3.263,23.231-1.001,30.188c2.059,6.341,10.078,14.579,17.83,22.552c13.794,14.175,29.428,30.242,29.428,52.132
		c0,21.891-15.636,37.958-29.428,52.133c-7.755,7.97-15.773,16.209-17.832,22.549c-2.259,6.955-0.601,18.767,1.003,30.187
		c2.695,19.207,5.75,40.976-6.664,58.037c-12.528,17.211-34.3,21.021-53.506,24.383c-11.261,1.969-22.903,4.006-28.655,8.191
		c-5.599,4.075-11.056,14.414-16.327,24.414c-9.163,17.368-19.55,37.054-40.045,43.709
		C387.365,1414.35,382.797,1415.056,378.069,1415.056z M306.001,1355.469c15.806,0,30.438,7.14,44.592,14.04
		c10.132,4.941,20.608,10.054,27.476,10.054c1.014,0,1.871-0.117,2.616-0.359c6.787-2.204,13.601-15.117,19.611-26.514
		c7.165-13.578,14.574-27.625,26.836-36.551c12.411-9.031,28.179-11.789,43.427-14.457c12.582-2.201,26.843-4.697,30.925-10.306
		c3.969-5.454,1.973-19.671,0.213-32.216c-2.163-15.406-4.4-31.339,0.389-46.081c4.612-14.204,15.562-25.458,26.15-36.343
		c9.08-9.332,19.372-19.908,19.372-27.377c0-7.471-10.292-18.047-19.372-27.379c-10.591-10.884-21.54-22.138-26.15-36.343
		c-4.786-14.742-2.552-30.675-0.389-46.081c1.759-12.544,3.756-26.762-0.215-32.216c-4.08-5.609-18.342-8.103-30.923-10.303
		c-15.247-2.668-31.016-5.427-43.427-14.457c-12.264-8.927-19.674-22.97-26.839-36.552c-6.011-11.394-12.824-24.307-19.612-26.513
		c-0.742-0.241-1.6-0.359-2.613-0.359c-6.867,0-17.343,5.109-27.474,10.053c-14.151,6.901-28.786,14.04-44.592,14.04
		c-15.805,0-30.438-7.137-44.592-14.04c-10.13-4.941-20.607-10.053-27.473-10.053c-1.014,0-1.871,0.116-2.617,0.359
		c-6.787,2.204-13.6,15.119-19.611,26.513c-7.165,13.582-14.574,27.625-26.836,36.552c-12.411,9.03-28.178,11.789-43.427,14.457
		c-12.582,2.2-26.842,4.695-30.924,10.305c-3.968,5.454-1.972,19.672-0.212,32.217c2.164,15.406,4.4,31.338-0.389,46.081
		c-4.613,14.204-15.563,25.458-26.151,36.34c-9.08,9.332-19.372,19.908-19.372,27.381c0,7.472,10.292,18.048,19.372,27.38
		c10.59,10.884,21.541,22.137,26.151,36.34c4.786,14.744,2.552,30.676,0.389,46.084c-1.758,12.544-3.756,26.762,0.215,32.216
		c4.08,5.607,18.341,8.103,30.922,10.303c15.249,2.668,31.016,5.426,43.424,14.457c12.265,8.926,19.675,22.97,26.839,36.552
		c6.011,11.394,12.825,24.308,19.612,26.513c0.746,0.241,1.601,0.359,2.616,0.359c6.865,0,17.342-5.109,27.472-10.053
		C275.562,1362.607,290.194,1355.469,306.001,1355.469z"/>
	<path fill="#5D5D5D" d="M306.001,1309.089c-88.074,0-159.729-71.654-159.729-159.729c0-88.076,71.654-159.73,159.729-159.73
		c35.659,0,69.391,11.493,97.549,33.24c39.518,30.514,62.181,76.617,62.181,126.488
		C465.729,1237.436,394.075,1309.089,306.001,1309.089z M306.001,1025.127c-68.502,0-124.233,55.73-124.233,124.232
		c0,68.503,55.731,124.233,124.233,124.233s124.233-55.73,124.233-124.232c0-38.792-17.635-74.653-48.381-98.397
		C359.969,1034.062,333.737,1025.127,306.001,1025.127z"/>
</g>
<g>
	<path fill="#5D5D5D" d="M135.613,698.333c-9.822,0-18.445-5.919-21.966-15.079l-27.379-71.185l-71.186-27.377
		c-7.461-2.87-12.904-9.251-14.563-17.07c-1.659-7.82,0.726-15.863,6.378-21.514l139.86-139.859l145.332,145.332L152.227,691.443
		C147.782,695.886,141.884,698.333,135.613,698.333z M45.027,558.18l58.951,22.673c6.199,2.384,11.128,7.31,13.512,13.514
		l22.669,58.945l101.729-101.729l-95.131-95.135L45.027,558.18z"/>
	<path fill="#5D5D5D" d="M476.371,698.336c-6.165,0-12.125-2.426-16.596-6.893l-31.063-31.062l25.102-25.101l18.03,18.03
		l22.673-58.949c2.384-6.201,7.312-11.129,13.516-13.513l58.942-22.671l-114.279-114.28l25.101-25.099l127.312,127.312
		c5.649,5.65,8.034,13.691,6.377,21.51c-1.659,7.818-7.104,14.201-14.563,17.07l-71.185,27.381l-27.38,71.184
		c-2.867,7.459-9.25,12.905-17.067,14.564C479.652,698.167,478.004,698.336,476.371,698.336z"/>
</g>
<path fill="#828282" d="M518.963,428.56c7.635-23.519,46.391-43.136,46.391-69.198c0-26.064-38.756-45.683-46.391-69.2
	c-7.914-24.373,11.632-62.973-3.133-83.262c-14.914-20.491-57.762-13.755-78.254-28.668c-20.289-14.765-27.04-57.679-51.412-65.592
	c-23.52-7.634-54.099,22.864-80.162,22.864c-26.063,0-56.643-30.5-80.161-22.864c-24.375,7.914-31.124,50.827-51.413,65.592
	c-20.491,14.914-63.339,8.176-78.253,28.668c-14.766,20.287,4.781,58.887-3.133,83.262c-7.635,23.518-46.39,43.135-46.39,69.2
	s38.755,45.683,46.39,69.201c7.914,24.375-11.632,62.973,3.133,83.262c14.914,20.491,57.761,13.755,78.253,28.669
	c20.29,14.766,27.041,57.68,51.413,65.594c23.518,7.636,54.099-22.864,80.161-22.864c26.064,0,56.645,30.501,80.162,22.864
	c24.374-7.914,31.123-50.827,51.412-65.592c20.491-14.914,63.34-8.176,78.254-28.666
	C530.595,491.534,511.049,452.933,518.963,428.56z M306.001,501.342c-78.415,0-141.981-63.565-141.981-141.982
	c0-78.415,63.567-141.981,141.981-141.981c32.646,0,62.717,11.017,86.701,29.538c33.624,25.964,55.28,66.676,55.28,112.444
	C447.982,437.773,384.416,501.342,306.001,501.342z"/>
<g>
	<path fill="#5D5D5D" d="M378.069,625.056c-15.062,0-29.284-6.936-43.036-13.645c-10.532-5.137-21.418-10.448-29.029-10.448
		c-7.612,0-18.5,5.312-29.03,10.448c-13.752,6.708-27.974,13.645-43.035,13.645c-4.728,0-9.295-0.704-13.578-2.095
		c-20.495-6.655-30.88-26.339-40.044-43.706c-5.276-9.999-10.73-20.339-16.332-24.416c-5.751-4.185-17.395-6.223-28.655-8.191
		c-19.207-3.361-40.978-7.171-53.503-24.381c-12.416-17.061-9.361-38.828-6.667-58.036c1.603-11.423,3.262-23.232,1-30.188
		c-2.057-6.338-10.075-14.578-17.832-22.548c-13.792-14.175-29.427-30.243-29.427-52.133c0-21.89,15.636-37.957,29.427-52.133
		c7.755-7.969,15.774-16.208,17.833-22.548c2.258-6.956,0.6-18.764-1.003-30.187c-2.695-19.206-5.751-40.975,6.664-58.037
		c12.529-17.212,34.301-21.021,53.507-24.382c11.261-1.97,22.902-4.006,28.655-8.193c5.601-4.075,11.055-14.414,16.329-24.414
		c9.163-17.368,19.549-37.054,40.044-43.709c4.283-1.391,8.849-2.094,13.578-2.094c15.061,0,29.284,6.935,43.036,13.645
		c10.532,5.136,21.417,10.448,29.029,10.448c7.612,0,18.5-5.312,29.029-10.448c13.753-6.708,27.975-13.645,43.035-13.645
		c4.728,0,9.296,0.704,13.577,2.094c20.494,6.655,30.88,26.341,40.044,43.709c5.274,9.999,10.73,20.337,16.329,24.414
		c5.754,4.187,17.396,6.223,28.655,8.193c19.206,3.361,40.979,7.169,53.503,24.379c12.416,17.061,9.36,38.83,6.667,58.037
		c-1.604,11.422-3.263,23.232-1.001,30.188c2.059,6.34,10.078,14.58,17.83,22.551c13.794,14.175,29.428,30.243,29.428,52.132
		c0,21.89-15.636,37.958-29.428,52.132c-7.755,7.97-15.773,16.209-17.832,22.549c-2.259,6.955-0.601,18.767,1.003,30.188
		c2.695,19.205,5.75,40.975-6.664,58.036c-12.528,17.211-34.3,21.021-53.506,24.383c-11.261,1.969-22.903,4.006-28.655,8.191
		c-5.599,4.075-11.056,14.414-16.327,24.414c-9.163,17.368-19.55,37.055-40.045,43.709
		C387.365,624.35,382.797,625.056,378.069,625.056z M306.001,565.469c15.806,0,30.438,7.14,44.592,14.04
		c10.132,4.941,20.608,10.053,27.476,10.053c1.014,0,1.871-0.116,2.616-0.358c6.787-2.204,13.601-15.117,19.611-26.514
		c7.165-13.578,14.574-27.625,26.836-36.551c12.411-9.031,28.179-11.789,43.427-14.457c12.582-2.201,26.843-4.696,30.925-10.306
		c3.969-5.454,1.973-19.671,0.213-32.216c-2.163-15.406-4.4-31.339,0.389-46.081c4.612-14.204,15.562-25.458,26.15-36.343
		c9.08-9.332,19.372-19.908,19.372-27.377c0-7.469-10.292-18.045-19.372-27.377c-10.591-10.883-21.54-22.137-26.15-36.342
		c-4.786-14.743-2.552-30.675-0.389-46.082c1.759-12.544,3.756-26.762-0.215-32.216c-4.08-5.608-18.342-8.102-30.923-10.302
		c-15.247-2.668-31.016-5.425-43.427-14.457c-12.264-8.926-19.674-22.969-26.839-36.552c-6.011-11.393-12.824-24.306-19.612-26.512
		c-0.742-0.242-1.6-0.36-2.613-0.36c-6.867,0-17.343,5.11-27.474,10.052c-14.151,6.902-28.786,14.04-44.592,14.04
		c-15.805,0-30.438-7.136-44.592-14.04c-10.13-4.941-20.607-10.052-27.473-10.052c-1.014,0-1.871,0.117-2.617,0.36
		c-6.787,2.204-13.6,15.119-19.611,26.512c-7.165,13.583-14.574,27.626-26.836,36.552c-12.411,9.032-28.178,11.789-43.427,14.457
		c-12.582,2.201-26.842,4.696-30.924,10.305c-3.968,5.454-1.972,19.671-0.212,32.216c2.164,15.406,4.4,31.338-0.389,46.082
		c-4.613,14.204-15.563,25.458-26.151,36.34c-9.08,9.332-19.372,19.908-19.372,27.38s10.292,18.048,19.372,27.38
		c10.59,10.884,21.541,22.137,26.151,36.34c4.786,14.744,2.552,30.676,0.389,46.084c-1.758,12.544-3.756,26.762,0.215,32.216
		c4.08,5.608,18.341,8.104,30.922,10.303c15.249,2.668,31.016,5.427,43.424,14.457c12.265,8.927,19.675,22.971,26.839,36.553
		c6.011,11.393,12.825,24.307,19.612,26.512c0.746,0.242,1.601,0.359,2.616,0.359c6.865,0,17.342-5.109,27.472-10.053
		C275.562,572.607,290.194,565.469,306.001,565.469z"/>
	<path fill="#5D5D5D" d="M306.001,519.089c-88.074,0-159.729-71.654-159.729-159.73S217.926,199.63,306.001,199.63
		c35.659,0,69.391,11.493,97.549,33.239c39.518,30.514,62.181,76.618,62.181,126.489
		C465.729,447.435,394.075,519.089,306.001,519.089z M306.001,235.126c-68.502,0-124.233,55.731-124.233,124.233
		c0,68.502,55.731,124.234,124.233,124.234s124.233-55.73,124.233-124.233c0-38.792-17.635-74.653-48.381-98.397
		C359.969,244.062,333.737,235.126,306.001,235.126z"/>
</g>
</svg>
