<?xml version="1.0" encoding="utf-8"?>
<!-- Generator: Adobe Illustrator 16.0.0, SVG Export Plug-In . SVG Version: 6.00 Build 0)  -->
<!DOCTYPE svg PUBLIC "-//W3C//DTD SVG 1.1//EN" "http://www.w3.org/Graphics/SVG/1.1/DTD/svg11.dtd">
<svg version="1.1" id="Layer_1" xmlns="http://www.w3.org/2000/svg" xmlns:xlink="http://www.w3.org/1999/xlink" x="0px" y="0px"
	 width="612px" height="1585px" viewBox="694.5 0 612 1585" enable-background="new 694.5 0 612 1585" xml:space="preserve">
<path fill="#8CC153" d="M1097.367,1360.745H903.631v-301.706c0-26.393,21.396-47.787,47.786-47.787h98.162
	c26.393,0,47.786,21.396,47.786,47.787v301.706H1097.367L1097.367,1360.745z"/>
<g>
	<path fill="#5D5D5D" d="M1112.764,1376.142H888.234v-317.103c0-34.839,28.344-63.182,63.184-63.182h98.163
		c34.838,0,63.183,28.343,63.183,63.182V1376.142L1112.764,1376.142z M919.027,1345.35h162.941v-286.311
		c0-17.859-14.531-32.391-32.391-32.391h-98.162c-17.859,0-32.391,14.531-32.391,32.391L919.027,1345.35L919.027,1345.35z"/>
	<path fill="#5D5D5D" d="M1306.499,1376.142h-224.527v-258.654h161.347c34.838,0,63.183,28.343,63.183,63.182h-30.792
		c0-17.859-14.532-32.39-32.391-32.39h-130.555v197.07h162.942v-82.804h30.793V1376.142z"/>
	<path fill="#5D5D5D" d="M919.027,1376.142H694.5v-226.265c0-34.839,28.344-63.182,63.184-63.182H919.03v289.447L919.027,1376.142
		L919.027,1376.142L919.027,1376.142z M725.293,1345.35h162.941v-227.862H757.684c-17.858,0-32.391,14.53-32.391,32.389
		C725.293,1149.877,725.293,1345.35,725.293,1345.35z"/>
	<path fill="#51702A" d="M1038.1,1199.776v23.957h-71.874v-23.957h23.626v-42.427c-0.998,1.331-2.554,2.692-4.657,4.075
		c-2.109,1.39-4.468,2.662-7.07,3.826c-2.607,1.164-5.271,2.109-7.986,2.828c-2.719,0.722-5.131,1.08-7.237,1.08v-24.623
		c1.772,0,4.074-0.608,6.903-1.829c2.828-1.22,5.629-2.688,8.403-4.409c2.771-1.718,5.267-3.465,7.487-5.242
		c2.218-1.772,3.604-3.216,4.157-4.325h27.12v71.041h21.129L1038.1,1199.776L1038.1,1199.776z"/>
	<path fill="#51702A" d="M765.336,1304.624c0-5.212,0.387-9.871,1.165-13.976c0.774-4.104,2.106-7.847,3.993-11.229
		c1.885-3.382,4.436-6.515,7.654-9.399c3.217-2.884,7.264-5.709,12.145-8.483c5.212-2.882,9.566-5.265,13.062-7.152
		c3.493-1.885,6.265-3.549,8.317-4.991c2.052-1.441,3.52-2.745,4.409-3.91c0.887-1.165,1.33-2.522,1.33-4.075
		c0-3.104-1.109-5.601-3.326-7.487c-2.219-1.885-5.381-2.828-9.482-2.828c-4.657,0-8.709,1.139-12.145,3.41
		c-3.441,2.275-6.768,5.241-9.984,8.901l-16.969-19.632c1.773-1.997,4.159-3.936,7.154-5.822c2.994-1.885,6.377-3.576,10.148-5.074
		c3.77-1.498,7.903-2.688,12.396-3.576c4.493-0.887,9.177-1.332,14.058-1.332c11.979,0,21.156,2.608,27.534,7.82
		c6.377,5.215,9.567,12.256,9.567,21.129c0,3.66-0.582,6.933-1.748,9.817c-1.164,2.886-2.691,5.464-4.575,7.735
		c-1.888,2.275-3.993,4.271-6.321,5.988c-2.33,1.722-4.717,3.303-7.152,4.742c-1.664,0.998-3.66,2.163-5.991,3.495
		c-2.33,1.329-4.633,2.689-6.904,4.073c-2.274,1.39-4.383,2.774-6.322,4.16c-1.939,1.389-3.409,2.637-4.407,3.742h45.254v23.958
		h-82.857v-0.004H765.336z"/>
	<path fill="#51702A" d="M1210.982,1253.005c3.021,0.584,5.801,1.635,8.338,3.145c2.533,1.513,4.703,3.415,6.51,5.704
		c1.802,2.291,3.192,4.924,4.169,7.897c0.973,2.978,1.463,6.168,1.463,9.581c0,4.586-0.929,8.702-2.779,12.358
		c-1.854,3.656-4.511,6.775-7.973,9.359c-3.463,2.582-7.631,4.582-12.507,5.997c-4.875,1.412-10.336,2.121-16.382,2.121
		c-14.822,0-26.427-4.341-34.812-13.018l12.578-16.676c2.634,2.73,5.63,4.806,8.995,6.217c3.363,1.414,7.386,2.121,12.065,2.121
		c11.017,0,16.526-4.045,16.526-12.14c0-4.388-1.636-7.701-4.899-9.946c-3.27-2.24-8.409-3.363-15.432-3.363h-4.388v-16.819h4.826
		c5.459,0,9.728-1.122,12.8-3.364c3.071-2.241,4.607-5.215,4.607-8.922c0-3.218-1.122-5.653-3.363-7.312
		c-2.245-1.656-5.218-2.485-8.922-2.485c-4,0-7.632,0.951-10.897,2.854c-3.269,1.901-6.021,4.607-8.264,8.117l-14.772-16.967
		c1.559-2.047,3.606-3.949,6.144-5.704c2.534-1.754,5.411-3.239,8.63-4.459c3.218-1.219,6.678-2.17,10.385-2.854
		c3.705-0.682,7.508-1.024,11.408-1.024c5.168,0,9.896,0.608,14.188,1.829c4.29,1.22,7.946,2.976,10.971,5.265
		c3.021,2.293,5.359,5.024,7.021,8.19c1.657,3.17,2.486,6.705,2.486,10.604c0,2.925-0.464,5.704-1.391,8.337
		c-0.929,2.633-2.219,5.023-3.875,7.167c-1.661,2.146-3.634,3.927-5.925,5.338
		C1216.223,1251.566,1213.71,1252.516,1210.982,1253.005z"/>
</g>
<path fill="#828282" d="M1097.367,560.745H903.631V259.039c0-26.393,21.396-47.786,47.786-47.786h98.162
	c26.393,0,47.786,21.395,47.786,47.786v301.707L1097.367,560.745L1097.367,560.745z"/>
<g>
	<path fill="#5D5D5D" d="M1112.764,576.142H888.234V259.039c0-34.838,28.344-63.182,63.184-63.182h98.163
		c34.838,0,63.183,28.343,63.183,63.182V576.142L1112.764,576.142z M919.027,545.35h162.941V259.039
		c0-17.859-14.531-32.389-32.391-32.389h-98.162c-17.859,0-32.391,14.531-32.391,32.389L919.027,545.35L919.027,545.35z"/>
	<path fill="#5D5D5D" d="M1306.499,576.142h-224.527V317.486h161.347c34.838,0,63.183,28.343,63.183,63.182h-30.792
		c0-17.859-14.532-32.39-32.391-32.39h-130.555V545.35h162.942v-82.804h30.793V576.142z"/>
	<path fill="#5D5D5D" d="M919.027,576.142H694.5V349.876c0-34.838,28.344-63.182,63.184-63.182H919.03v289.449L919.027,576.142
		L919.027,576.142L919.027,576.142z M725.293,545.35h162.941V317.486H757.684c-17.858,0-32.391,14.531-32.391,32.39V545.35z"/>
	<path fill="#5D5D5D" d="M1038.1,399.776v23.957h-71.874v-23.957h23.626V357.35c-0.998,1.331-2.554,2.692-4.657,4.075
		c-2.109,1.389-4.468,2.662-7.07,3.826c-2.607,1.164-5.271,2.109-7.986,2.828c-2.719,0.722-5.131,1.081-7.237,1.081v-24.624
		c1.772,0,4.074-0.608,6.903-1.829c2.828-1.219,5.629-2.688,8.403-4.409c2.771-1.718,5.267-3.465,7.487-5.242
		c2.218-1.774,3.604-3.216,4.157-4.326h27.12v71.042h21.129L1038.1,399.776L1038.1,399.776z"/>
	<path fill="#5D5D5D" d="M765.336,504.624c0-5.212,0.387-9.871,1.165-13.976c0.774-4.104,2.106-7.847,3.993-11.229
		c1.885-3.382,4.436-6.515,7.654-9.399c3.217-2.884,7.264-5.71,12.145-8.483c5.212-2.882,9.566-5.266,13.062-7.152
		c3.493-1.885,6.265-3.549,8.317-4.992c2.052-1.44,3.52-2.745,4.409-3.909c0.887-1.165,1.33-2.522,1.33-4.075
		c0-3.104-1.109-5.602-3.326-7.487c-2.219-1.885-5.381-2.828-9.482-2.828c-4.657,0-8.709,1.138-12.145,3.41
		c-3.441,2.275-6.768,5.241-9.984,8.901l-16.969-19.633c1.773-1.996,4.159-3.935,7.154-5.821c2.994-1.885,6.377-3.576,10.148-5.074
		c3.77-1.498,7.903-2.688,12.396-3.576c4.493-0.887,9.177-1.332,14.058-1.332c11.979,0,21.156,2.608,27.534,7.82
		c6.377,5.215,9.567,12.256,9.567,21.129c0,3.66-0.582,6.933-1.748,9.817c-1.164,2.886-2.691,5.464-4.575,7.735
		c-1.888,2.275-3.993,4.271-6.321,5.988c-2.33,1.722-4.717,3.303-7.152,4.742c-1.664,0.998-3.66,2.163-5.991,3.495
		c-2.33,1.33-4.633,2.689-6.904,4.073c-2.274,1.39-4.383,2.774-6.322,4.16c-1.939,1.389-3.409,2.637-4.407,3.742h45.254v23.958
		h-82.857v-0.004H765.336z"/>
	<path fill="#5D5D5D" d="M1210.982,453.005c3.021,0.584,5.801,1.635,8.338,3.145c2.533,1.513,4.703,3.415,6.51,5.704
		c1.802,2.291,3.192,4.924,4.169,7.897c0.973,2.978,1.463,6.168,1.463,9.581c0,4.586-0.929,8.702-2.779,12.358
		c-1.854,3.656-4.511,6.775-7.973,9.359c-3.463,2.582-7.631,4.582-12.507,5.997c-4.875,1.412-10.336,2.121-16.382,2.121
		c-14.822,0-26.427-4.341-34.812-13.018l12.578-16.676c2.634,2.73,5.63,4.806,8.995,6.217c3.363,1.415,7.386,2.122,12.065,2.122
		c11.017,0,16.526-4.046,16.526-12.141c0-4.388-1.636-7.701-4.899-9.946c-3.27-2.24-8.409-3.362-15.432-3.362h-4.388v-16.82h4.826
		c5.459,0,9.728-1.122,12.8-3.364c3.071-2.24,4.607-5.215,4.607-8.922c0-3.218-1.122-5.652-3.363-7.312
		c-2.245-1.657-5.218-2.486-8.922-2.486c-4,0-7.632,0.951-10.897,2.854c-3.269,1.9-6.021,4.606-8.264,8.116l-14.772-16.967
		c1.559-2.047,3.606-3.949,6.144-5.704c2.534-1.754,5.411-3.239,8.63-4.459c3.218-1.219,6.678-2.17,10.385-2.854
		c3.705-0.682,7.508-1.024,11.408-1.024c5.168,0,9.896,0.609,14.188,1.829c4.29,1.22,7.946,2.976,10.971,5.265
		c3.021,2.293,5.359,5.024,7.021,8.19c1.657,3.17,2.486,6.705,2.486,10.605c0,2.925-0.464,5.703-1.391,8.337
		c-0.929,2.633-2.219,5.022-3.875,7.167c-1.661,2.146-3.634,3.927-5.925,5.338C1216.223,451.566,1213.71,452.516,1210.982,453.005z"
		/>
</g>
</svg>
