<?xml version="1.0" encoding="iso-8859-1"?>
<!-- Generator: Adobe Illustrator 19.0.0, SVG Export Plug-In . SVG Version: 6.00 Build 0)  -->
<svg version="1.1" id="Layer_1" xmlns="http://www.w3.org/2000/svg" xmlns:xlink="http://www.w3.org/1999/xlink" x="0px" y="0px"
	 viewBox="0 0 511.982 511.982" style="enable-background:new 0 0 511.982 511.982;" xml:space="preserve">
<polygon style="fill:#8CC153;" points="490.217,443.982 453.717,417.984 414.219,402.985 385.22,389.985 134.229,394.313 
	48.733,420.984 24.734,443.982 24.734,503.981 493.717,499.481 "/>
<path style="fill:#A0D468;" d="M402.72,112.996l-9.5-39.999c0,0-33.998-35.999-36.498-36.999s-56.497-20.5-56.497-20.5l-70.998-3
	l-43.499,8l-45.999,31L116.23,96.997l-9.999,97.996l5.499,35.499l35.999-58.498l210.492-3.5l37.498,48.498l9.5-2L402.72,112.996z"/>
<path style="fill:#EAC6BB;" d="M354.721,171.493l-95.996,3l-108.996,3l-16.688,18.375l-1.812,30.124
	c0,0,14.999,49.998,14.499,51.498s14.499,0.5,14.499,0.5l53.998-5.999l33.999-16l20,4l78.996,20.499l21-11.999l14.998-52.499
	L354.721,171.493z"/>
<polygon style="fill:#A0D468;" points="333.221,280.489 286.224,268.99 255.725,261.49 143.729,280.489 154.229,297.489 
	176.728,328.988 221.726,358.487 248.725,367.487 290.724,357.987 320.721,332.988 331.691,314.129 359.221,282.989 "/>
<polygon style="fill:#EAC6BB;" points="295.224,357.487 257.225,372.486 219.226,356.487 168.728,321.488 195.227,394.985 
	242.225,402.985 300.224,397.485 329.221,372.486 341.721,328.988 "/>
<polygon style="fill:#FFCE54;" points="204.227,404.984 260.225,493.653 308.552,394.313 "/>
<g>
	<polygon style="fill:#A0D468;" points="173.478,352.487 129.23,385.735 160.728,408.484 157.229,437.483 197.477,466.982 
		238.475,483.481 	"/>
	<polygon style="fill:#A0D468;" points="378.72,389.985 340.471,352.487 277.724,484.731 354.471,441.732 348.471,411.484 	"/>
</g>
<path d="M460.296,407.625l-1.812-0.516c-26.483-7.124-35.437-13.952-47.233-18.437c-8.327-3.172-15.421-6.172-21.483-8.969
	l-34.326-33.967l-0.188-27.03c18.217-24.39,32.186-53.717,36.748-84.669l4.547,6.719c2.031,2.984,5.375,4.688,8.844,4.688
	c1.047,0,2.094-0.156,3.125-0.484c4.483-1.375,7.546-5.5,7.546-10.188V128.058c0-1.328-0.234-32.811-20.343-64.419
	c-11.859-18.64-28.139-33.467-48.404-44.077C322.535,6.578,291.818,0,255.991,0c-35.812,0-66.545,6.578-91.325,19.562
	c-20.249,10.609-36.545,25.437-48.404,44.077c-20.108,31.608-20.343,63.091-20.343,64.419v106.714c0,4.688,3.062,8.828,7.547,10.203
	c4.483,1.359,9.327-0.344,11.968-4.234l4.547-6.719c4.562,30.968,18.53,60.279,36.749,84.685l-0.188,26.812l-34.733,34.373
	c-5.969,2.75-12.938,5.688-21.077,8.781c-11.797,4.484-20.749,11.312-47.233,18.437l-1.827,0.516
	c-24.093,7.969-40.312,30.327-40.312,55.561v48.795h244.631h244.632v-48.795C500.622,437.952,484.404,415.593,460.296,407.625z
	 M340.893,416.359l4,16.483l-59.185,36.499l58.966-104.229l22.953,22.717l-22.859,17.562
	C341.409,407.953,339.893,412.265,340.893,416.359z M167.01,405.39l-22.874-17.562l22.968-22.732l59.123,104.261l-59.342-36.53
	l3.984-16.468C171.869,412.265,170.353,407.953,167.01,405.39z M313.255,377.298c-1.453,1.312-5.781,4.938-13.233,8.5
	c-15.578,7.469-32.577,9.031-44.093,9.031c-20.859,0-35.499-4.906-44.107-9.031c-7.469-3.578-11.812-7.188-13.266-8.5
	l-17.921-31.592c25.03,23.875,53.153,38.67,75.356,38.67c22.077,0,49.982-14.623,74.888-38.232L313.255,377.298z M294.318,410.781
	l-38.343,67.778l-38.421-67.763c10.344,3.125,23.077,5.375,38.374,5.375S283.974,413.922,294.318,410.781z M169.072,288.926
	c38.952,0,74.7-15.125,87.247-21.077c13.516,5.562,53.451,20.515,93.23,21.046c-6,10.094-13.062,19.874-21.155,29.093
	c-12.249,13.953-25.982,25.64-39.701,33.78c-12.234,7.266-23.858,11.266-32.702,11.266s-20.469-4-32.702-11.266
	c-13.718-8.141-27.452-19.827-39.702-33.78c-8.124-9.266-15.233-19.093-21.233-29.233
	C164.603,288.864,166.838,288.926,169.072,288.926z M134.776,74.31c9.891-15.25,23.484-27.405,40.374-36.155
	c21.593-11.156,48.795-16.812,80.841-16.812s59.248,5.656,80.841,16.812c16.89,8.75,30.468,20.905,40.372,36.155
	c10.531,16.218,14.734,32.717,16.406,43.076H118.37C120.043,107.027,124.245,90.528,134.776,74.31z M117.262,138.729H394.72v61.263
	l-23.873-35.249c-2-2.922-5.297-4.672-8.844-4.672H149.917c-3.547,0-6.859,1.766-8.844,4.687l-23.812,35.202L117.262,138.729
	L117.262,138.729z M139.917,204.555l15.656-23.14h200.773l15.719,23.203c0.141,2.656,0.203,5.344,0.203,8.062
	c0,17.796-4.109,36.42-11.781,54.591c-45.998,3.203-99.543-20.64-100.105-20.89c-0.078-0.031-0.141-0.047-0.219-0.078
	c-0.094-0.047-0.188-0.078-0.281-0.125c-0.234-0.094-0.484-0.172-0.719-0.25c-0.062-0.016-0.109-0.031-0.156-0.047
	c-0.297-0.078-0.578-0.156-0.875-0.219c-0.016,0-0.016,0-0.031-0.016c-0.672-0.125-1.328-0.188-2-0.203c-0.031,0-0.062,0-0.094,0
	c-0.297,0-0.609,0.016-0.922,0.047c-0.078,0-0.172,0.016-0.25,0.031c-0.25,0.016-0.5,0.047-0.75,0.094
	c-0.125,0.031-0.25,0.062-0.375,0.094c-0.219,0.031-0.422,0.078-0.625,0.141c-0.141,0.047-0.281,0.078-0.422,0.141
	c-0.188,0.062-0.375,0.125-0.562,0.188c-0.141,0.062-0.281,0.125-0.406,0.188c-0.188,0.078-0.391,0.156-0.562,0.25
	c-0.047,0.031-0.094,0.047-0.141,0.062c-0.484,0.266-49.107,25.624-95.762,20.108c-1.312-0.156-2.609-0.047-3.844,0.266
	c-7.594-18.125-11.656-36.655-11.656-54.373C139.729,209.946,139.792,207.242,139.917,204.555z M32.701,463.185
	c0-15.922,10.156-30.015,25.343-35.171l1.188-0.344c19.969-5.374,30.968-10.655,39.827-14.905c3.422-1.625,6.391-3.047,9.265-4.141
	c5.703-2.172,11.906-4.64,18.203-7.421l21.968,16.874l-4.188,17.265c-1.078,4.483,0.844,9.171,4.781,11.608l70.981,43.687H32.701
	V463.185z M479.279,490.637h-187.43l70.841-43.702c3.938-2.422,5.859-7.109,4.766-11.593l-4.188-17.265l22.045-16.937
	c6.344,2.812,12.609,5.296,18.359,7.483c2.859,1.094,5.827,2.516,9.249,4.141c8.859,4.25,19.875,9.531,39.827,14.905l1.188,0.344
	c15.172,5.156,25.343,19.249,25.343,35.171V490.637z"/>
<g>
</g>
<g>
</g>
<g>
</g>
<g>
</g>
<g>
</g>
<g>
</g>
<g>
</g>
<g>
</g>
<g>
</g>
<g>
</g>
<g>
</g>
<g>
</g>
<g>
</g>
<g>
</g>
<g>
</g>
</svg>
